<svg width="22" height="22" viewBox="0 0 22 22" fill="none" xmlns="http://www.w3.org/2000/svg">
<path d="M11 0.439941C5.1678 0.439941 0.440002 5.16774 0.440002 10.9999C0.440002 16.8321 5.1678 21.5599 11 21.5599C16.8322 21.5599 21.56 16.8321 21.56 10.9999C21.56 5.16774 16.8322 0.439941 11 0.439941ZM15.2955 9.09034C15.2999 9.18054 15.301 9.27074 15.301 9.35874C15.301 12.1087 13.2099 15.2778 9.3841 15.2778C8.25363 15.2797 7.14667 14.955 6.1963 14.3428C6.358 14.3626 6.5241 14.3703 6.6924 14.3703C7.667 14.3703 8.5635 14.0392 9.2752 13.4804C8.84149 13.4719 8.42124 13.3283 8.07302 13.0696C7.72481 12.8109 7.46598 12.45 7.3326 12.0372C7.64407 12.0965 7.96494 12.0841 8.2709 12.0009C7.80016 11.9058 7.37682 11.6507 7.07268 11.279C6.76854 10.9073 6.60232 10.4418 6.6022 9.96154V9.93624C6.8827 10.0913 7.2039 10.1859 7.5449 10.1969C7.10358 9.90316 6.79117 9.45188 6.67155 8.93539C6.55194 8.4189 6.63416 7.87622 6.9014 7.41834C7.42385 8.06074 8.07539 8.58626 8.81383 8.96088C9.55227 9.3355 10.3611 9.55087 11.1881 9.59304C11.083 9.14678 11.1282 8.67829 11.3168 8.2604C11.5054 7.84251 11.8268 7.49863 12.231 7.28223C12.6352 7.06583 13.0995 6.98904 13.5519 7.06378C14.0042 7.13852 14.4192 7.36062 14.7323 7.69554C15.1978 7.60345 15.6442 7.4327 16.0523 7.19064C15.8972 7.67259 15.5723 8.08183 15.1382 8.34234C15.5505 8.29268 15.9532 8.18183 16.3328 8.01344C16.0539 8.43133 15.7027 8.79602 15.2955 9.09034Z" fill="white"/>
</svg>
