<svg width="14" height="14" viewBox="0 0 14 14" fill="none" xmlns="http://www.w3.org/2000/svg">
<path fill-rule="evenodd" clip-rule="evenodd" d="M14 7C14 10.866 10.866 14 7 14C3.13401 14 0 10.866 0 7C0 3.13401 3.13401 0 7 0C10.866 0 14 3.13401 14 7ZM8.24555 10.8659H10.5693L8.10411 7.73393L10.3773 5.39001H8.10411L6.14411 7.29949V3.36939H4.22452V10.8659H6.14411V9.52217L6.70988 8.9463L8.24555 10.8659ZM9.3093 5.05155C9.74772 5.05155 10.1031 4.69615 10.1031 4.25774C10.1031 3.81932 9.74772 3.46392 9.3093 3.46392C8.87089 3.46392 8.51549 3.81932 8.51549 4.25774C8.51549 4.69615 8.87089 5.05155 9.3093 5.05155Z" fill="black"/>
</svg>
